<svg width="70" height="70" viewBox="0 0 70 70" fill="none" xmlns="http://www.w3.org/2000/svg">
<path d="M47.2614 10.7325L39.6859 18.3081L33.0591 15.9408L30.6919 9.31418L38.2676 1.73853C33.2972 0.0757349 27.5938 1.22014 23.636 5.17811C19.7512 9.06287 18.5774 14.6288 20.1071 19.533C19.9012 19.6952 19.7015 19.8698 19.5115 20.0599L3.95284 35.6183C1.34905 38.222 1.34905 42.4434 3.95284 45.0472C6.55663 47.6509 10.7782 47.6509 13.382 45.0472L28.9406 29.4886C29.1307 29.2985 29.305 29.099 29.4673 28.893C34.3716 30.4227 39.9374 29.2488 43.8221 25.364C47.7798 21.4061 48.9243 15.703 47.2614 10.7325Z" fill="#3B64F5"/>
</svg>
